<?xml version="1.0" standalone="no"?>
<!DOCTYPE svg PUBLIC "-//W3C//DTD SVG 20010904//EN"
 "http://www.w3.org/TR/2001/REC-SVG-20010904/DTD/svg10.dtd">
<svg version="1.0" xmlns="http://www.w3.org/2000/svg"
 width="75.000000pt" height="75.000000pt" viewBox="0 0 75.000000 75.000000"
 preserveAspectRatio="xMidYMid meet">
<metadata>
Created by potrace 1.14, written by Peter Selinger 2001-2017
</metadata>
<g transform="translate(0.000000,75.000000) scale(0.100000,-0.100000)"
fill="#000000" stroke="none">
<path d="M359 598 c-8 -33 -6 -38 18 -38 18 0 24 5 21 17 -3 15 -36 33 -39 21z"/>
<path d="M194 509 c-3 -6 0 -17 7 -25 18 -17 44 -2 36 20 -7 18 -33 21 -43 5z"/>
<path d="M521 506 c-9 -10 -8 -16 4 -26 19 -16 41 1 32 24 -8 20 -21 20 -36 2z"/>
<path d="M361 472 c-26 -73 -70 -131 -109 -142 -51 -14 -62 -13 -107 10 -21
11 -40 18 -42 16 -2 -2 3 -32 11 -67 15 -64 15 -64 -9 -86 -20 -18 -22 -23
-10 -33 11 -9 33 1 107 48 51 32 111 70 134 85 l41 25 84 -54 c165 -105 190
-118 200 -103 6 10 1 19 -15 32 -24 17 -24 18 -10 75 19 82 19 83 -18 64 -18
-9 -55 -17 -82 -16 -42 0 -52 4 -81 35 -17 20 -40 58 -50 85 -25 67 -29 70
-44 26z"/>
<path d="M492 422 c-27 -31 -25 -52 5 -63 22 -8 23 -6 22 41 -1 28 -2 50 -3
49 0 0 -11 -12 -24 -27z"/>
<path d="M233 395 c0 -50 5 -53 38 -26 l24 20 -27 25 c-15 15 -29 26 -31 26
-2 0 -4 -20 -4 -45z"/>
<path d="M53 414 c-3 -8 -1 -20 5 -26 15 -15 43 8 35 28 -7 19 -32 18 -40 -2z"/>
<path d="M663 414 c-3 -8 0 -21 6 -27 10 -9 16 -8 27 7 11 16 11 22 1 28 -18
12 -27 10 -34 -8z"/>
<path d="M292 239 c-45 -28 -82 -54 -82 -57 0 -6 267 -8 329 -3 12 1 -149 111
-161 111 -2 0 -40 -23 -86 -51z m108 -13 c0 -3 -4 -8 -10 -11 -5 -3 -10 -1
-10 4 0 6 5 11 10 11 6 0 10 -2 10 -4z m-30 -26 c0 -5 -5 -10 -11 -10 -5 0 -7
5 -4 10 3 6 8 10 11 10 2 0 4 -4 4 -10z"/>
</g>
</svg>
